<?xml version="1.0" encoding="iso-8859-1"?>
<!-- Generator: Adobe Illustrator 19.0.0, SVG Export Plug-In . SVG Version: 6.00 Build 0)  -->
<svg version="1.1" id="Layer_1" xmlns="http://www.w3.org/2000/svg" xmlns:xlink="http://www.w3.org/1999/xlink" x="0px" y="0px"
	 viewBox="0 0 460 460" style="enable-background:new 0 0 460 460;" xml:space="preserve">
<polygon style="fill:#C8523B;" points="79.3,142.409 76.625,178.724 129.148,178.724 131.823,142.409 "/>
<polygon style="fill:#E5C400;" points="64.064,350.686 116.462,352.431 117.258,341.445 64.86,339.697 "/>
<polygon style="fill:#C8523B;" points="62.211,376.441 114.734,376.441 116.462,352.46 64.064,350.732 "/>
<polygon style="fill:#C8523B;" points="64.86,339.697 117.258,341.445 127.097,202.93 74.574,202.93 "/>
<polygon style="fill:#E5C400;" points="74.574,202.93 127.097,202.93 129.148,178.724 76.625,178.724 "/>
<rect x="133.163" y="45.57" style="fill:#E5C400;" width="72.635" height="40.353"/>
<rect x="133.163" y="158.551" style="fill:#E5C400;" width="72.635" height="217.89"/>
<rect x="133.163" y="85.923" style="fill:#59595A;" width="72.635" height="72.629"/>
<rect x="213.857" y="194.869" style="fill:#608A7C;" width="52.463" height="44.379"/>
<rect x="213.857" y="239.248" style="fill:#ABCB57;" width="52.463" height="84.733"/>
<rect x="213.857" y="340.127" style="fill:#ABCB57;" width="52.463" height="36.314"/>
<rect x="213.857" y="323.981" style="fill:#E5C400;" width="52.463" height="16.146"/>
<rect x="213.857" y="134.334" style="fill:#ABCB57;" width="52.463" height="60.535"/>
<rect x="213.857" y="81.887" style="fill:#ABCB57;" width="52.463" height="40.347"/>
<rect x="213.857" y="122.234" style="fill:#608A7C;" width="52.463" height="12.1"/>
<polygon style="fill:#ABCB57;" points="293.736,72.751 268.411,74.513 269.502,88.276 294.814,86.508 "/>
<polygon style="fill:#608A7C;" points="292.283,376.441 317.74,376.441 314.966,341.399 289.759,344.652 "/>
<polygon style="fill:#608A7C;" points="291.512,43.559 266.202,45.57 268.411,74.513 293.736,72.751 "/>
<polygon style="fill:#608A7C;" points="294.814,86.508 269.502,88.276 287.938,321.523 313.145,318.289 "/>
<polygon style="fill:#ABCB57;" points="287.938,321.523 289.759,344.603 314.966,341.369 313.145,318.289 "/>
<rect x="322.8" y="323.981" style="fill:#C8523B;" width="72.635" height="52.46"/>
<rect x="322.8" y="106.092" style="fill:#C8523B;" width="72.635" height="157.371"/>
<rect x="322.8" y="263.462" style="fill:#E5C400;" width="72.635" height="60.519"/>
<rect y="376.441" style="fill:#B9BBBC;" width="460" height="40"/>
<rect y="396.441" style="opacity:0.3;fill:#5B5B5F;enable-background:new    ;" width="460" height="20"/>
<g>
</g>
<g>
</g>
<g>
</g>
<g>
</g>
<g>
</g>
<g>
</g>
<g>
</g>
<g>
</g>
<g>
</g>
<g>
</g>
<g>
</g>
<g>
</g>
<g>
</g>
<g>
</g>
<g>
</g>
</svg>
