<?xml version="1.0" ?><!DOCTYPE svg  PUBLIC '-//W3C//DTD SVG 1.1//EN'  'http://www.w3.org/Graphics/SVG/1.1/DTD/svg11.dtd'><svg id="Layer_1" style="enable-background:new 0 0 64 64;" version="1.1" viewBox="0 0 64 64" xml:space="preserve" xmlns="http://www.w3.org/2000/svg" xmlns:xlink="http://www.w3.org/1999/xlink"><style type="text/css">
	.st0{fill:#134563;}
</style><g><g id="Icon-Pencil" transform="translate(179.000000, 382.000000)"><path class="st0" d="M-168.2-328l3.7-14.9l22.7-22.7l11.2,11.2l-22.7,22.7L-168.2-328L-168.2-328z M-161.9-341.5     l-2.4,9.6l9.6-2.4l20.2-20.2l-7.2-7.2L-161.9-341.5L-161.9-341.5z" id="Fill-168"/><path class="st0" d="M-155.7-332.6c-1-3.9-4-6.9-7.9-7.9l0.7-2.8c4.9,1.2,8.7,5,9.9,9.9L-155.7-332.6" id="Fill-169"/><polyline class="st0" id="Fill-170" points="-156,-338.1 -158,-340.2 -138.1,-360.1 -136.1,-358.1 -156,-338.1    "/><path class="st0" d="M-166.2-330l4.4-1.1c-0.4-1.6-1.7-2.9-3.3-3.3L-166.2-330" id="Fill-171"/><path class="st0" d="M-129.5-355.5l-11.2-11.2l4.5-4.5l0.7,0.1c5.4,0.7,9.7,5,10.4,10.4l0.1,0.7L-129.5-355.5     L-129.5-355.5z M-136.6-366.7l7.2,7.2l1.4-1.4c-0.8-3.6-3.6-6.4-7.2-7.2L-136.6-366.7L-136.6-366.7z" id="Fill-172"/></g></g></svg>