<?xml version="1.0" encoding="utf-8"?>
<!-- Generator: Adobe Illustrator 24.0.0, SVG Export Plug-In . SVG Version: 6.00 Build 0)  -->
<svg version="1.1" id="Layer_1" xmlns="http://www.w3.org/2000/svg" xmlns:xlink="http://www.w3.org/1999/xlink" x="0px" y="0px"
	 viewBox="0 0 1599.3 274.2" style="enable-background:new 0 0 1599.3 274.2;" xml:space="preserve">
<style type="text/css">
	.st0{fill:#FFFFFF;}
	.st1{font-family:'ArialMT';}
	.st2{font-size:250px;}
</style>
<title>Schoology Logo - Horizontal_white</title>
<path class="st0" d="M138.1,273.2C63,273.2,2,212.1,2,137.1S63,1,138.1,1s136.1,61,136.1,136.1S213.1,273.2,138.1,273.2z
	 M138.1,23.6c-62.7,0-113.5,50.8-113.5,113.5s50.8,113.5,113.5,113.5s113.5-50.8,113.5-113.5l0,0C251.6,74.4,200.8,23.6,138.1,23.6
	L138.1,23.6z"/>
<path class="st0" d="M131.5,145.1c-22.6-5.4-50.3-11.6-50.3-40.8c0-25.6,21.7-41.7,54.1-41.7c26.8,0,55.3,12.8,60.1,45.8l-25.6,3.3
	c-0.3-8.6-0.9-15.5-10.1-22.6s-19.9-8.3-27-8.3c-18.5,0-27.7,11-27.7,20.5c0,13.4,15.2,17.6,33.6,22l13.4,3.3
	c16.6,3.9,46.7,11,46.7,40.5c0,22.9-20.2,44.3-58.9,44.3c-15.8,0-32.1-3.3-43.4-11.3c-4.5-3.3-18.1-14.6-20.8-38.1l26.8-4.2
	c-0.3,6.3-0.3,18.1,10.4,27.4c8.3,7.1,18.8,8.1,28.3,8.1c20.8,0,33-8.1,33-23.2c0-16.1-12.2-19-29.1-22.3L131.5,145.1z"/>
<g>
	<path class="st0" d="M1330,165.7h-38.8v-15.4h64V223h-16v-16.8c0,0,2.5-2.9-0.1,0.1c-11.6,13.6-28.2,19.7-48.7,19.7
		c-49.9,0-67.8-37.2-67.8-70.7c0-38.7,20.5-73.6,65.8-73.6c21.9,0,53.9,7.8,62.9,45.6l-25.4,2.3c-0.9-5.5-5.8-31.1-36.6-31.1
		c-39.6,0-41.3,43-41.3,55.1c0,14.7,2.9,27.4,9,36.6c7.8,12.4,19.6,18.2,33.7,18.2c33.2,0,36.9-27.1,38.4-37.8L1330,165.7z"/>
	<path class="st0" d="M364.7,162.5c-21.9-5.2-48.8-11.3-48.8-39.5c0-24.8,21-40.4,52.5-40.4c26,0,53.6,12.4,58.3,44.4l-24.8,3.2
		c-0.3-8.4-0.9-15-9.8-22s-19.3-8.1-26.2-8.1c-17.9,0-26.8,10.7-26.8,19.9c0,13,14.7,17,32.6,21.3l13,3.2
		c16.2,3.7,45.3,10.7,45.3,39.2c0,22.2-19.6,43-57.1,43c-15.3,0-31.2-3.2-42.1-11c-4.3-3.2-17.6-14.1-20.2-36.9l26-4
		c-0.3,6-0.3,17.6,10.1,26.5c8.1,6.9,18.2,7.8,27.5,7.8c20.2,0,32-7.8,32-22.5c0-15.6-11.8-18.4-28.3-21.6L364.7,162.5z"/>
	<path class="st0" d="M574.8,173.5c-1.2,8.1-3.8,15.9-7.8,23.1c-11.3,20.8-30.6,30-55.7,30c-49.9,0-67.8-37.2-67.8-70.7
		c0-38.7,20.5-73.6,65.8-73.6c21.9,0,54,7.8,62.9,45.6l-25.4,2.3c-0.9-5.5-5.8-31.2-36.7-31.2c-39.5,0-41.2,43-41.2,55.1
		c0,14.7,2.9,27.4,8.9,36.7c7.8,12.4,19.6,18.1,33.8,18.1c33.2,0,36.9-27.1,38.4-37.8L574.8,173.5z"/>
	<path class="st0" d="M588.6,18.6H612v81.7c14.4-15.3,28.3-17.9,41.3-17.9c30,0,41.8,16.8,45.8,30c2.6,8.6,2.6,17.6,2.6,31.1v79.1
		h-23.4v-71.8c0-17.9,0-28.3-5.5-36.7c-5.8-8.4-15-11.5-23.9-11.5c-14.7,0-30.6,8.1-35.2,29.1c-1.7,7.5-1.7,14.7-1.7,24.8v66.1
		h-23.4L588.6,18.6L588.6,18.6z"/>
	<path class="st0" d="M792,82.3c-52.8,0-67.8,43-67.8,73.3c0,35.8,19.9,71,67,71c41.5,0,66.1-30.9,66.3-72.2
		C857.8,117.2,837,82.3,792,82.3z M832.5,154.4c-0.3,13.9-3.2,53.7-41.5,53.7c-29.7,0-41.5-23.7-41.5-52.2
		c0-31.2,12.4-55.1,43.3-55.1c15.6,0,33.2,7.8,38.4,34.6l0,0C832.3,141.7,832.8,148.1,832.5,154.4z"/>
	<path class="st0" d="M941.2,82.3c-52.8,0-67.8,43-67.8,73.3c0,35.8,19.9,71,67,71l0,0c41.5,0,66-30.9,66.3-72.2
		C1007,117.2,986.2,82.3,941.2,82.3z M981.6,154.4c-0.3,13.9-3.2,53.7-41.5,53.7c-29.7,0-41.6-23.7-41.6-52.2
		c0-31.2,12.4-55.1,43.3-55.1c15.6,0,33.2,7.8,38.4,34.6l0,0C981.5,141.7,982,148.1,981.6,154.4z"/>
	<rect x="1030.2" y="18.8" class="st0" width="22.2" height="203.7"/>
	<g>
		<path class="st0" d="M1142.4,226.6L1142.4,226.6L1142.4,226.6z"/>
		<path class="st0" d="M1208.8,154.4c0.3-37.2-20.5-72.2-65.5-72.2c-52.8,0-67.8,43-67.8,73.3c0,35.8,19.9,71,66.9,71
			C1184,226.6,1208.5,195.7,1208.8,154.4z M1183.7,154.4c-0.3,13.9-3.2,53.7-41.5,53.7c-29.8,0-41.6-23.7-41.6-52.2
			c0-31.2,12.4-55.1,43.3-55.1c15.6,0,33.2,7.8,38.4,34.6l0,0C1183.5,141.7,1183.9,148.1,1183.7,154.4z"/>
	</g>
	<path class="st0" d="M1474.4,84.8h-21.9l-35.1,55.6L1383,84.8h-25.4l48.6,74.8v63.1h22.1v-63.1l49.6-74.8H1474.4z"/>
</g>
<text transform="matrix(1 0 0 1 1461.3365 244.1863)" class="st0 st1 st2">+</text>
</svg>
